<?xml version="1.0" encoding="us-ascii" standalone="no"?><svg xmlns="http://www.w3.org/2000/svg" xmlns:xlink="http://www.w3.org/1999/xlink" contentStyleType="text/css" height="86px" preserveAspectRatio="none" style="width:224px;height:86px;background:#FFFFFF;" version="1.1" viewBox="0 0 224 86" width="224px" zoomAndPan="magnify"><defs/><g><!--entity client--><g id="elem_client"><ellipse cx="199" cy="14" fill="#F1F1F1" rx="8" ry="8" style="stroke:#181818;stroke-width:0.5;"/><path d="M199,22 L199,49 M186,30 L212,30 M199,49 L186,64 M199,49 L212,64 " fill="none" style="stroke:#181818;stroke-width:0.5;"/><text fill="#000000" font-family="sans-serif" font-size="14" lengthAdjust="spacing" textLength="37" x="180.5" y="78.4951">client</text></g><!--entity app--><g id="elem_app"><polygon fill="#F1F1F1" points="79,30.5,89,20.5,145,20.5,145,56.7969,135,66.7969,79,66.7969,79,30.5" style="stroke:#181818;stroke-width:0.5;"/><line style="stroke:#181818;stroke-width:0.5;" x1="135" x2="145" y1="30.5" y2="20.5"/><line style="stroke:#181818;stroke-width:0.5;" x1="79" x2="135" y1="30.5" y2="30.5"/><line style="stroke:#181818;stroke-width:0.5;" x1="135" x2="135" y1="30.5" y2="66.7969"/><text fill="#000000" font-family="sans-serif" font-size="14" lengthAdjust="spacing" textLength="26" x="94" y="53.4951">app</text></g><!--entity db--><g id="elem_db"><path d="M6,31 C6,21 25,21 25,21 C25,21 44,21 44,31 L44,56.2969 C44,66.2969 25,66.2969 25,66.2969 C25,66.2969 6,66.2969 6,56.2969 L6,31 " fill="#F1F1F1" style="stroke:#181818;stroke-width:0.5;"/><path d="M6,31 C6,41 25,41 25,41 C25,41 44,41 44,31 " fill="none" style="stroke:#181818;stroke-width:0.5;"/><text fill="#000000" font-family="sans-serif" font-size="14" lengthAdjust="spacing" textLength="18" x="16" y="57.9951">db</text></g><!--link db to app--><g id="link_db_app"><path d="M44.03,43.5 C55.62,43.5 61.22,43.5 72.81,43.5 " fill="none" id="db-to-app" style="stroke:#181818;stroke-width:1.0;"/><polygon fill="#181818" points="78.81,43.5,69.81,39.5,73.81,43.5,69.81,47.5,78.81,43.5" style="stroke:#181818;stroke-width:1.0;"/></g><!--link app to client--><g id="link_app_client"><path d="M145.3,43.5 C156.91,43.5 162.52,43.5 174.12,43.5 " fill="none" id="app-to-client" style="stroke:#181818;stroke-width:1.0;"/><polygon fill="#181818" points="180.12,43.5,171.12,39.5,175.12,43.5,171.12,47.5,180.12,43.5" style="stroke:#181818;stroke-width:1.0;"/></g><!--SRC=[IqmkoIzIICx9JCqhuShBJqbLI2meu4f9B4bCIYnELKX9uk9AILBGjGCB0p682L4D0000]--></g></svg>