<?xml version="1.0" encoding="us-ascii" standalone="no"?><svg xmlns="http://www.w3.org/2000/svg" xmlns:xlink="http://www.w3.org/1999/xlink" contentStyleType="text/css" height="130px" preserveAspectRatio="none" style="width:224px;height:130px;background:#FFFFFF;" version="1.1" viewBox="0 0 224 130" width="224px" zoomAndPan="magnify"><defs/><g><!--entity client--><g id="elem_client"><ellipse cx="199" cy="57.31" fill="#F1F1F1" rx="8" ry="8" style="stroke:#181818;stroke-width:0.5;"/><path d="M199,65.31 L199,92.31 M186,73.31 L212,73.31 M199,92.31 L186,107.31 M199,92.31 L212,107.31 " fill="none" style="stroke:#181818;stroke-width:0.5;"/><text fill="#000000" font-family="sans-serif" font-size="14" lengthAdjust="spacing" textLength="37" x="180.5" y="121.8051">client</text></g><!--entity app--><g id="elem_app"><polygon fill="#F1F1F1" points="79,73.81,89,63.81,145,63.81,145,100.1069,135,110.1069,79,110.1069,79,73.81" style="stroke:#181818;stroke-width:0.5;"/><line style="stroke:#181818;stroke-width:0.5;" x1="135" x2="145" y1="73.81" y2="63.81"/><line style="stroke:#181818;stroke-width:0.5;" x1="79" x2="135" y1="73.81" y2="73.81"/><line style="stroke:#181818;stroke-width:0.5;" x1="135" x2="135" y1="73.81" y2="110.1069"/><text fill="#000000" font-family="sans-serif" font-size="14" lengthAdjust="spacing" textLength="26" x="94" y="96.8051">app</text></g><!--entity db--><g id="elem_db"><path d="M6,74.31 C6,64.31 25,64.31 25,64.31 C25,64.31 44,64.31 44,74.31 L44,99.6069 C44,109.6069 25,109.6069 25,109.6069 C25,109.6069 6,109.6069 6,99.6069 L6,74.31 " fill="#F1F1F1" style="stroke:#181818;stroke-width:0.5;"/><path d="M6,74.31 C6,84.31 25,84.31 25,84.31 C25,84.31 44,84.31 44,74.31 " fill="none" style="stroke:#181818;stroke-width:0.5;"/><text fill="#000000" font-family="sans-serif" font-size="14" lengthAdjust="spacing" textLength="18" x="16" y="101.3051">db</text></g><!--link db to app--><g id="link_db_app"><path d="M44.03,86.81 C55.62,86.81 61.22,86.81 72.81,86.81 " fill="none" id="db-to-app" style="stroke:#181818;stroke-width:1.0;"/><polygon fill="#181818" points="78.81,86.81,69.81,82.81,73.81,86.81,69.81,90.81,78.81,86.81" style="stroke:#181818;stroke-width:1.0;"/></g><!--link app to client--><g id="link_app_client"><path d="M145.3,86.81 C156.91,86.81 162.52,86.81 174.12,86.81 " fill="none" id="app-to-client" style="stroke:#181818;stroke-width:1.0;"/><polygon fill="#181818" points="180.12,86.81,171.12,82.81,175.12,86.81,171.12,90.81,180.12,86.81" style="stroke:#181818;stroke-width:1.0;"/></g><!--link client to db--><g id="link_client_db"><path d="M180.42,51.65 C171.68,38.86 159.96,25.83 145.5,18.81 C119.11,6 105.94,6.11 79.5,18.81 C60,28.17 48.2793,43.0934 39.0793,59.0334 " fill="none" id="client-to-db" style="stroke:#181818;stroke-width:1.0;"/><polygon fill="#181818" points="36.08,64.23,44.0433,58.4347,38.5794,59.8995,37.1145,54.4356,36.08,64.23" style="stroke:#181818;stroke-width:1.0;"/></g><!--SRC=[IqmkoIzIICx9JCqhuShBJqbLI2meu4f9B4bCIYnELKX9uk9AILBGjGCB0p682LKDeK02AKa0]--></g></svg>